<?xml version="1.0" encoding="utf-8"?>
<!-- Generator: Adobe Illustrator 21.0.0, SVG Export Plug-In . SVG Version: 6.00 Build 0)  -->
<svg version="1.1" id="Layer_1" focusable="false" xmlns="http://www.w3.org/2000/svg" xmlns:xlink="http://www.w3.org/1999/xlink"
	 x="0px" y="0px" viewBox="0 0 20 20" style="enable-background:new 0 0 20 20;" xml:space="preserve">
<style type="text/css">
	.st0{fill:#F63854;}
</style>
<path class="st0" d="M17.9,0H2.1C1,0,0,1,0,2.1v15.7C0,19,1,20,2.1,20h6.1v-6.8H5.5V10h2.8V7.6c0-2.8,1.7-4.3,4.2-4.3
	c1.2,0,2.5,0.2,2.5,0.2v2.7h-1.4c-1.4,0-1.8,0.9-1.8,1.7V10h3.1l-0.5,3.2h-2.6V20h6.1c1.2,0,2.1-1,2.1-2.1V2.1C20,1,19,0,17.9,0z"/>
</svg>
