<?xml version="1.0" encoding="utf-8"?>
<!-- Generator: Adobe Illustrator 21.0.0, SVG Export Plug-In . SVG Version: 6.00 Build 0)  -->
<svg version="1.1" id="Layer_1" focusable="false" xmlns="http://www.w3.org/2000/svg" xmlns:xlink="http://www.w3.org/1999/xlink"
	 x="0px" y="0px" viewBox="0 0 20 20" style="enable-background:new 0 0 20 20;" xml:space="preserve">
<style type="text/css">
	.st0{fill:#fff;}
</style>
<path class="st0" d="M17.9,0H2.1C1,0,0,1,0,2.1v15.7C0,19,1,20,2.1,20h15.7c1.2,0,2.1-1,2.1-2.1V2.1C20,1,19,0,17.9,0z M15.7,7.1
	c0,0.1,0,0.3,0,0.4c0,3.9-2.9,8.3-8.3,8.3c-1.7,0-3.2-0.5-4.5-1.3c0.2,0,0.5,0,0.7,0c1.4,0,2.6-0.5,3.6-1.3c-1.3,0-2.4-0.9-2.7-2
	c0.5,0.1,0.9,0.1,1.3-0.1c-1.3-0.3-2.3-1.5-2.3-2.9v0c0.4,0.2,0.8,0.4,1.3,0.4C3.9,8.1,3.5,7.2,3.5,6.2c0-0.5,0.1-1,0.4-1.5
	c1.4,1.8,3.6,2.9,6,3.1c-0.4-2,1.1-3.6,2.9-3.6c0.8,0,1.6,0.4,2.1,0.9c0.7-0.1,1.3-0.4,1.9-0.7c-0.2,0.7-0.7,1.3-1.3,1.6
	C16,6,16.6,5.8,17.1,5.6C16.7,6.2,16.2,6.7,15.7,7.1z"/>
</svg>
