<?xml version="1.0" encoding="utf-8"?>
<!-- Generator: Adobe Illustrator 21.0.0, SVG Export Plug-In . SVG Version: 6.00 Build 0)  -->
<svg version="1.1" id="Layer_1" xmlns="http://www.w3.org/2000/svg" xmlns:xlink="http://www.w3.org/1999/xlink" x="0px" y="0px"
	 viewBox="0 0 50 85.9" style="enable-background:new 0 0 50 85.9;" xml:space="preserve">
<style type="text/css">
	.st0{fill:#FFC522;}
	.st1{fill:#F2D6B6;}
	.st2{fill:#F63854;}
</style>
<g>
	<path class="st0" d="M12.3,16.1c0,0,4-14.2,6.4-15.6c0,0,1.2,2.5,1.7,4.2c0,0,0.8-1.9,2.2-2.6c0,0-0.2,1.9,0,2.8c0,0,0.5-1.6,3-4
		c0,0-1.1,3.1-1.2,4.8L29.6,0l-1.6,6.2c0,0,2.5-3.6,3.4-4.2c0,0,0.3,1.6,0,3.9c0,0-0.9,0.3,2-1.6c0,0,0,1.8,0,3.7s0,0.7,0,0.7
		s1.1-1.1,2.7-2.7c0,0,2.2,10.1,2.9,11.1L12.3,16.1z"/>
	<circle class="st1" cx="25.3" cy="24.2" r="15.4"/>
	<path class="st2" d="M35.5,37.3c-2.7,2.6-6.4,4.1-10.5,4.1s-7.7-1.6-10.5-4.1C6,40.5,0,48.8,0,58.4v27.5h50V58.4
		C50,48.8,44,40.5,35.5,37.3z"/>
</g>
</svg>
