<?xml version="1.0" encoding="utf-8"?>
<!-- Generator: Adobe Illustrator 21.0.0, SVG Export Plug-In . SVG Version: 6.00 Build 0)  -->
<svg version="1.1" id="Layer_1" xmlns="http://www.w3.org/2000/svg" xmlns:xlink="http://www.w3.org/1999/xlink" x="0px" y="0px"
	 viewBox="0 0 49.9 85.9" style="enable-background:new 0 0 49.9 85.9;" xml:space="preserve">
<style type="text/css">
	.st0{fill:none;}
	.st1{fill:#F63854;}
	.st2{fill:#F2D6B6;}
	.st3{fill:#FFC522;}
</style>
<path class="st0" d="M0,0v1.6C0.4,1,0.9,0.5,1.3,0H0z"/>
<g>
	<path class="st0" d="M16.5,6.8c0-0.1,0-0.1,0-0.1c0.3-0.3,0.7-0.5,1-0.7C17.3,4.3,17,2.3,16.3,2c-1.4-0.5-2.1-0.1-2.9,1.2
		c-0.3,0.5-0.4,2-0.9,4C14,6.1,15.4,6.1,16.5,6.8z"/>
	<path class="st1" d="M35.4,37.5c-2.7,2.6-6.4,4.1-10.4,4.1c-4,0-7.7-1.6-10.4-4.1c-8.5,3.2-14.5,11.4-14.5,21v27.4h49.8V58.5
		C49.9,48.9,43.9,40.7,35.4,37.5z"/>
	<path class="st2" d="M25.3,19.8c-3.3-1.2-5.8-5.6-7.3-9c-1.3,2.8-4.1,8.6-5.7,10.2c-1.1,1.2-2,1.9-2.7,2.8c0,0.2,0,0.4,0,0.5
		c0,8.5,6.9,15.4,15.4,15.4c7.8,0,14.2-5.8,15.2-13.3c-0.2-0.3-0.3-0.6-0.4-0.9C38.8,22,31,21.9,25.3,19.8z"/>
	<path class="st3" d="M12.4,21.1c1.5-1.6,4.4-7.4,5.7-10.2c-0.9-2-1.4-3.6-1.5-4.1c-1.1-0.6-2.6-0.7-4,0.5C12,9.5,11,12.6,8.8,15.8
		C8.2,21.3,8,28.5,8.5,26.5c0.3-1.2,0.7-2,1.2-2.7C10.4,23,11.2,22.2,12.4,21.1z"/>
	<path class="st3" d="M21.3,6.3c-0.8,0.2-3.6,2-3.6,2s0-1.1-0.2-2.4c-0.3,0.2-0.7,0.4-1,0.7c0,0,0,0,0,0.1c0.1,0.5,0.7,2.1,1.5,4.1
		c1.5,3.4,3.9,7.8,7.3,9c5.6,2.1,13.5,2.2,14.5,5.7c0.1,0.3,0.2,0.7,0.4,0.9c1.5,2.6,5.2,3.1,5.2,3.1s-4.5-18.7-7.6-21.7
		c-4.3-4.2-10.2-6.1-16.2-4C21.7,5.2,21.6,6.2,21.3,6.3z"/>
	<path class="st3" d="M0,1.6v24.8c1.7-2.5,3.7-5,5.8-7.1C7,18.2,8,17,8.8,15.8c2.1-3.2,3.1-6.2,3.7-8.5c0.5-2,0.6-3.5,0.9-4
		C14.1,2,14.9,1.5,16.3,2c0.7,0.3,1,2.2,1.2,3.9c0.1,1.3,0.2,2.4,0.2,2.4s2.8-1.7,3.6-2c0.4-0.1,0.4-1.1,0.3-2.5
		c-0.1-1.1-0.3-2.5-0.7-3.8H1.3C0.9,0.5,0.4,1,0,1.6z"/>
</g>
</svg>
