<?xml version="1.0" encoding="utf-8"?>
<!-- Generator: Adobe Illustrator 21.0.0, SVG Export Plug-In . SVG Version: 6.00 Build 0)  -->
<svg version="1.1" id="Layer_1" xmlns="http://www.w3.org/2000/svg" xmlns:xlink="http://www.w3.org/1999/xlink" x="0px" y="0px"
	 viewBox="0 0 200 29.7" style="enable-background:new 0 0 200 29.7;" xml:space="preserve">
<style type="text/css">
	.st0{fill:#F63854;}
	.st1{fill:#F04975;}
	.st2{fill:url(#SVGID_1_);}
</style>
<g>
	<path class="st0" d="M77.5,29.2h-5.4V0h18.5v4.5H77.5v8h10.3v4.4H77.5V29.2z"/>
	<path class="st0" d="M114.2,29.2h-5v-4.7c-1.3,3.4-3.8,5.1-7.5,5.1c-2.2,0-3.9-0.6-5.1-1.8s-1.9-2.9-1.9-5.1V7.6h5.4v14.1
		c0,1.6,0.4,2.6,1.1,3.1c0.7,0.5,1.5,0.7,2.2,0.7c1.2,0,2.3-0.5,3.5-1.4c1.2-0.9,1.8-3,1.8-6.1V7.6h5.3V29.2z"/>
	<path class="st0" d="M119.1,24.3l4.6-0.9c0.7,1.8,2.2,2.6,4.6,2.6c3,0,4.5-0.9,4.5-2.7c0-0.6-0.2-1-0.7-1.4c-0.5-0.4-1-0.6-1.7-0.7
		l-3.9-0.7c-4.4-0.8-6.6-3-6.6-6.4c0-1.9,0.7-3.5,2.1-4.9c1.4-1.3,3.4-2,6.2-2c4.6,0,7.4,1.7,8.4,5l-4.3,0.9
		c-0.5-1.6-1.8-2.4-3.9-2.4c-2.6,0-3.9,0.8-3.9,2.4c0,1.1,1,1.9,3.1,2.3l4.6,1c3.6,0.7,5.4,2.8,5.4,6.2c0,2.4-0.9,4.2-2.8,5.3
		c-1.9,1.2-4.1,1.8-6.6,1.8c-2.2,0-4.2-0.4-5.9-1.3S119.6,26.1,119.1,24.3z"/>
	<path class="st0" d="M148.8,5.1H144V0h4.9V5.1z M148.8,29.2H144V7.6h4.9V29.2z"/>
	<path class="st0" d="M164.9,29.7c-3.2,0-5.6-1.1-7.3-3.4c-1.7-2.3-2.5-4.9-2.5-7.9c0-3.2,0.9-5.9,2.8-8c1.9-2.1,4.3-3.2,7.4-3.2
		c2.9,0,5.3,1,7.1,3.1c1.9,2.1,2.8,4.8,2.8,8.1c0,3.4-1,6.2-2.9,8.2C170.3,28.6,167.8,29.7,164.9,29.7z M165,25.7
		c3.3,0,4.9-2.4,4.9-7.3c0-2.2-0.4-4-1.2-5.2c-0.8-1.3-2-1.9-3.6-1.9c-1.7,0-2.9,0.7-3.7,2c-0.8,1.3-1.2,3.1-1.2,5.3
		c0,2.4,0.4,4.2,1.3,5.4C162.4,25,163.5,25.7,165,25.7z"/>
	<path class="st0" d="M200,29.2h-5.4V15.2c0-1.5-0.4-2.6-1.1-3.4c-0.7-0.7-1.6-1.1-2.7-1.1c-1.4,0-2.7,0.6-3.7,1.7
		c-1.1,1.2-1.6,2.9-1.6,5.2v11.6H180V6.7h5v5.2c1.7-3.8,4.2-5.7,7.3-5.7c2.1,0,3.9,0.6,5.4,1.9c1.5,1.2,2.3,3.4,2.3,6.6V29.2z"/>
	<path class="st1" d="M0,2.2v27.3h40.4C40.4,29.5,48.6,3.9,0,2.2z"/>
	<linearGradient id="SVGID_1_" gradientUnits="userSpaceOnUse" x1="0" y1="20.21" x2="66.2691" y2="20.21">
		<stop  offset="0" style="stop-color:#DE3E66"/>
		<stop  offset="1" style="stop-color:#870B52"/>
	</linearGradient>
	<path class="st2" d="M0,14.5c0,0,16.9-1.7,22.9-2.9S45.2,9.8,52,14.5c7.4,5.1,10.8,9.4,14.3,15.2H0V14.5z"/>
</g>
</svg>
