<?xml version="1.0" encoding="utf-8"?>
<!-- Generator: Adobe Illustrator 21.0.0, SVG Export Plug-In . SVG Version: 6.00 Build 0)  -->
<svg version="1.1" id="Layer_1" xmlns="http://www.w3.org/2000/svg" xmlns:xlink="http://www.w3.org/1999/xlink" x="0px" y="0px"
	 viewBox="0 0 50 85.9" style="enable-background:new 0 0 50 85.9;" xml:space="preserve">
<style type="text/css">
	.st0{fill:#DB9565;}
	.st1{fill:#FF2444;stroke:#A0102C;stroke-width:0.25;stroke-miterlimit:10;}
	.st2{fill:#382314;}
	.st3{fill:#FFFFFF;}
</style>
<circle class="st0" cx="25.3" cy="24.2" r="15.4"/>
<path class="st0" d="M35.5,37.3c-2.7,2.6-6.4,4.1-10.5,4.1s-7.7-1.6-10.5-4.1C6,40.5,0,48.8,0,58.4v27.5h50V58.4
	C50,48.8,44,40.5,35.5,37.3z"/>
<path class="st1" d="M39.2,17.9l4.9-2.6c0,0,1.3,3.9,0.6,5.2c0,0-3-0.8-4.4,0C38.9,21.3,39.2,17.9,39.2,17.9z"/>
<path class="st1" d="M10.2,21.1c0,0,17.3,1.9,30.2,0c0,0-3.1-12.4-14.7-12.4C15,8.7,11.4,16.4,10.2,21.1z"/>
<path class="st2" d="M23.5,39.5v-3.6h3.2v3.6C26.8,39.5,23.9,39.5,23.5,39.5z"/>
<path class="st2" d="M23.6,34.8c0,0,3.7-0.1,4.4-1.2"/>
<circle class="st3" cx="13" cy="19.1" r="0.6"/>
<circle class="st3" cx="15.5" cy="16.2" r="0.3"/>
<circle class="st3" cx="18.1" cy="13.1" r="0.7"/>
<circle class="st3" cx="15.5" cy="19.7" r="0.3"/>
<circle class="st3" cx="19.9" cy="18" r="0.3"/>
<circle class="st3" cx="22.2" cy="12.4" r="1.3"/>
<circle class="st3" cx="27.6" cy="13.1" r="0.4"/>
<circle class="st3" cx="24" cy="16.5" r="0.4"/>
<circle class="st3" cx="23.6" cy="20" r="0.4"/>
<circle class="st3" cx="28.5" cy="19.1" r="0.3"/>
<circle class="st3" cx="30.8" cy="15.3" r="0.5"/>
<circle class="st3" cx="32.4" cy="13.1" r="0.4"/>
<circle class="st3" cx="32.8" cy="16.5" r="0.8"/>
<circle class="st3" cx="32.4" cy="20" r="0.4"/>
<circle class="st3" cx="35.8" cy="18.3" r="1.1"/>
<circle class="st3" cx="27.2" cy="17.1" r="0.4"/>
<circle class="st3" cx="27.6" cy="11.1" r="0.6"/>
<circle class="st3" cx="41.4" cy="18" r="0.5"/>
<circle class="st3" cx="43" cy="19.1" r="0.5"/>
</svg>
