<?xml version="1.0" encoding="utf-8"?>
<!-- Generator: Adobe Illustrator 21.0.0, SVG Export Plug-In . SVG Version: 6.00 Build 0)  -->
<svg version="1.1" id="Layer_1" focusable="false" xmlns="http://www.w3.org/2000/svg" xmlns:xlink="http://www.w3.org/1999/xlink"
	 x="0px" y="0px" viewBox="0 0 50 38.9" style="enable-background:new 0 0 50 38.9;" xml:space="preserve">
<style type="text/css">
	.st0{fill:#F63854;}
</style>
<path class="st0" d="M45.8,0H4.2C1.9,0,0,1.9,0,4.2v30.6c0,2.3,1.9,4.2,4.2,4.2h41.7c2.3,0,4.2-1.9,4.2-4.2V4.2
	C50,1.9,48.1,0,45.8,0z M15.3,8.3c3.1,0,5.6,2.5,5.6,5.6s-2.5,5.6-5.6,5.6S9.7,17,9.7,13.9S12.2,8.3,15.3,8.3z M25,28.9
	c0,0.9-0.9,1.7-1.9,1.7H7.5c-1.1,0-1.9-0.7-1.9-1.7v-1.7c0-2.8,2.6-5,5.8-5h0.4c1.1,0.4,2.2,0.7,3.5,0.7s2.4-0.3,3.5-0.7h0.4
	c3.2,0,5.8,2.2,5.8,5V28.9z M44.4,24.3c0,0.4-0.3,0.7-0.7,0.7H31.3c-0.4,0-0.7-0.3-0.7-0.7v-1.4c0-0.4,0.3-0.7,0.7-0.7h12.5
	c0.4,0,0.7,0.3,0.7,0.7V24.3z M44.4,18.8c0,0.4-0.3,0.7-0.7,0.7H31.3c-0.4,0-0.7-0.3-0.7-0.7v-1.4c0-0.4,0.3-0.7,0.7-0.7h12.5
	c0.4,0,0.7,0.3,0.7,0.7V18.8z M44.4,13.2c0,0.4-0.3,0.7-0.7,0.7H31.3c-0.4,0-0.7-0.3-0.7-0.7v-1.4c0-0.4,0.3-0.7,0.7-0.7h12.5
	c0.4,0,0.7,0.3,0.7,0.7V13.2z"/>
</svg>
