<?xml version="1.0" encoding="utf-8"?>
<!-- Generator: Adobe Illustrator 21.0.0, SVG Export Plug-In . SVG Version: 6.00 Build 0)  -->
<svg version="1.1" id="Layer_1" focusable="false" xmlns="http://www.w3.org/2000/svg" xmlns:xlink="http://www.w3.org/1999/xlink"
	 x="0px" y="0px" viewBox="0 0 50 50" style="enable-background:new 0 0 50 50;" xml:space="preserve">
<style type="text/css">
	.st0{fill:#F63854;}
</style>
<path class="st0" d="M0,25C0,11.2,11.2,0,25,0s25,11.2,25,25S38.8,50,25,50S0,38.8,0,25z M29.4,36.7V25h7.1c1.1,0,1.6-1.3,0.9-2.1
	L25.9,11.4c-0.5-0.5-1.2-0.5-1.7,0L12.6,22.9c-0.8,0.8-0.2,2.1,0.9,2.1h7.1v11.7c0,0.7,0.5,1.2,1.2,1.2h6.5
	C28.9,37.9,29.4,37.4,29.4,36.7z"/>
</svg>
