<?xml version="1.0" encoding="utf-8"?>
<!-- Generator: Adobe Illustrator 21.0.0, SVG Export Plug-In . SVG Version: 6.00 Build 0)  -->
<svg version="1.1" id="Layer_1" focusable="false" xmlns="http://www.w3.org/2000/svg" xmlns:xlink="http://www.w3.org/1999/xlink"
	 x="0px" y="0px" viewBox="0 0 50 37.5" style="enable-background:new 0 0 50 37.5;" xml:space="preserve">
<style type="text/css">
	.st0{fill:#F63854;}
</style>
<path class="st0" d="M48.4,31.3H6.3V1.6C6.3,0.7,5.6,0,4.7,0H1.6C0.7,0,0,0.7,0,1.6v32.8c0,1.7,1.4,3.1,3.1,3.1h45.3
	c0.9,0,1.6-0.7,1.6-1.6v-3.1C50,31.9,49.3,31.3,48.4,31.3z M45.3,3.1H33.8c-2.1,0-3.1,2.5-1.7,4l3.2,3.2l-7.2,7.2L21,10.3
	c-1.2-1.2-3.2-1.2-4.4,0L9.8,17c-0.6,0.6-0.6,1.6,0,2.2l2.2,2.2c0.6,0.6,1.6,0.6,2.2,0l4.5-4.5l7.2,7.2c1.2,1.2,3.2,1.2,4.4,0
	l9.4-9.4l3.2,3.2c1.5,1.5,4,0.4,4-1.7V4.7C46.9,3.8,46.2,3.1,45.3,3.1z"/>
</svg>
