<?xml version="1.0" encoding="utf-8"?>
<!-- Generator: Adobe Illustrator 21.0.0, SVG Export Plug-In . SVG Version: 6.00 Build 0)  -->
<svg version="1.1" id="Layer_1" focusable="false" xmlns="http://www.w3.org/2000/svg" xmlns:xlink="http://www.w3.org/1999/xlink"
	 x="0px" y="0px" viewBox="0 0 50 39.9" style="enable-background:new 0 0 50 39.9;" xml:space="preserve">
<style type="text/css">
	.st0{fill:#F63854;}
</style>
<path class="st0" d="M40,14.9L39.4,16c-0.2,0.4-0.7,0.6-1.2,0.4c-0.9-0.3-1.8-0.8-2.5-1.5c-0.4-0.3-0.5-0.8-0.2-1.2l0.6-1.1
	c-0.5-0.6-1-1.4-1.2-2.1h-1.3c-0.5,0-0.9-0.3-1-0.8c-0.2-0.9-0.2-1.9,0-2.9c0.1-0.5,0.5-0.8,1-0.8h1.3c0.3-0.8,0.7-1.5,1.2-2.1
	l-0.6-1.1c-0.2-0.4-0.1-0.9,0.2-1.2c0.7-0.6,1.6-1.1,2.5-1.5c0.4-0.2,0.9,0,1.2,0.4L40,1.6c0.8-0.1,1.7-0.1,2.5,0l0.6-1.1
	c0.2-0.4,0.7-0.6,1.2-0.4c0.9,0.3,1.8,0.8,2.5,1.5c0.4,0.3,0.5,0.8,0.2,1.2l-0.6,1.1c0.5,0.6,1,1.4,1.2,2.1h1.3c0.5,0,0.9,0.3,1,0.8
	c0.2,0.9,0.2,1.9,0,2.9c-0.1,0.5-0.5,0.8-1,0.8h-1.3c-0.3,0.8-0.7,1.5-1.2,2.1l0.6,1.1c0.2,0.4,0.1,0.9-0.2,1.2
	c-0.7,0.6-1.6,1.1-2.5,1.5c-0.4,0.2-0.9,0-1.2-0.4l-0.6-1.1C41.7,15.1,40.8,15.1,40,14.9z M39.2,10.3c3,2.3,6.4-1.1,4.1-4.1
	C40.3,3.9,36.9,7.3,39.2,10.3z M30.2,22.3l2.6,1.3c0.8,0.5,1.1,1.4,0.8,2.3c-0.7,1.9-2.1,3.6-3.3,5.1c-0.6,0.7-1.6,0.9-2.4,0.4
	l-2.3-1.3c-1.3,1.1-2.7,1.9-4.3,2.5v2.6c0,0.9-0.6,1.7-1.5,1.8c-1.9,0.3-3.9,0.3-5.9,0c-0.9-0.2-1.6-0.9-1.6-1.8v-2.6
	c-1.6-0.6-3-1.4-4.3-2.5l-2.3,1.3C5,31.9,4,31.8,3.4,31.1c-1.3-1.5-2.6-3.3-3.3-5.1c-0.3-0.9,0-1.8,0.8-2.3l2.6-1.3
	c-0.3-1.6-0.3-3.3,0-5l-2.6-1.3c-0.8-0.5-1.1-1.4-0.8-2.3c0.7-1.9,2-3.6,3.3-5.1C4,8,5,7.8,5.8,8.2l2.3,1.3c1.3-1.1,2.7-1.9,4.3-2.5
	V4.5c0-0.9,0.6-1.7,1.5-1.8c1.9-0.3,3.9-0.3,5.9,0c0.9,0.2,1.6,0.9,1.6,1.8v2.6c1.6,0.6,3,1.4,4.3,2.5l2.3-1.3
	c0.8-0.5,1.8-0.3,2.4,0.4c1.3,1.5,2.6,3.3,3.3,5.1c0.3,0.9,0,1.8-0.8,2.3l-2.6,1.3C30.5,19,30.5,20.7,30.2,22.3z M21,24
	c4.6-6-2.2-12.9-8.3-8.3C8.1,21.8,15,28.6,21,24z M40,38.3l-0.6,1.1c-0.2,0.4-0.7,0.6-1.2,0.4c-0.9-0.3-1.8-0.8-2.5-1.5
	c-0.4-0.3-0.5-0.8-0.2-1.2l0.6-1.1c-0.5-0.6-1-1.4-1.2-2.1h-1.3c-0.5,0-0.9-0.3-1-0.8c-0.2-0.9-0.2-1.9,0-2.9c0.1-0.5,0.5-0.8,1-0.8
	h1.3c0.3-0.8,0.7-1.5,1.2-2.1l-0.6-1.1c-0.2-0.4-0.1-0.9,0.2-1.2c0.7-0.6,1.6-1.1,2.5-1.5c0.4-0.2,0.9,0,1.2,0.4L40,25
	c0.8-0.1,1.7-0.1,2.5,0l0.6-1.1c0.2-0.4,0.7-0.6,1.2-0.4c0.9,0.3,1.8,0.8,2.5,1.5c0.4,0.3,0.5,0.8,0.2,1.2l-0.6,1.1
	c0.5,0.6,1,1.4,1.2,2.1h1.3c0.5,0,0.9,0.3,1,0.8c0.2,0.9,0.2,1.9,0,2.9c-0.1,0.5-0.5,0.8-1,0.8h-1.3c-0.3,0.8-0.7,1.5-1.2,2.1
	l0.6,1.1c0.2,0.4,0.1,0.9-0.2,1.2c-0.7,0.6-1.6,1.1-2.5,1.5c-0.4,0.2-0.9,0-1.2-0.4l-0.6-1.1C41.7,38.4,40.8,38.4,40,38.3z
	 M39.2,33.7c3,2.3,6.4-1.1,4.1-4.1C40.3,27.2,36.9,30.7,39.2,33.7L39.2,33.7z"/>
</svg>
