<?xml version="1.0" encoding="utf-8"?>
<!-- Generator: Adobe Illustrator 21.0.0, SVG Export Plug-In . SVG Version: 6.00 Build 0)  -->
<svg version="1.1" id="Layer_1" focusable="false" xmlns="http://www.w3.org/2000/svg" xmlns:xlink="http://www.w3.org/1999/xlink"
	 x="0px" y="0px" viewBox="0 0 50 40" style="enable-background:new 0 0 50 40;" xml:space="preserve">
<style type="text/css">
	.st0{fill:#F63854;}
</style>
<path class="st0" d="M19.9,20.4c0.5,0.5,1.3,0.5,1.8,0l0.9-0.9c0.5-0.5,0.5-1.3,0-1.8L19.8,15l2.8-2.8c0.5-0.5,0.5-1.3,0-1.8
	l-0.9-0.9c-0.5-0.5-1.3-0.5-1.8,0l-4.6,4.6c-0.5,0.5-0.5,1.3,0,1.8L19.9,20.4z M27.4,19.6l0.9,0.9c0.5,0.5,1.3,0.5,1.8,0l4.6-4.6
	c0.5-0.5,0.5-1.3,0-1.8l-4.6-4.6c-0.5-0.5-1.3-0.5-1.8,0l-0.9,0.9c-0.5,0.5-0.5,1.3,0,1.8l2.8,2.8l-2.8,2.8
	C26.9,18.3,26.9,19.1,27.4,19.6L27.4,19.6z M48.8,32.5H29.8C29.8,34,28.7,35,27.3,35h-4.8c-1.5,0-2.6-1.4-2.6-2.5H1.3
	c-0.7,0-1.3,0.6-1.3,1.3V35c0,2.8,2.3,5,5,5h40c2.8,0,5-2.3,5-5v-1.3C50,33.1,49.4,32.5,48.8,32.5z M45,3.8C45,1.7,43.3,0,41.3,0
	H8.8C6.7,0,5,1.7,5,3.8V30h40V3.8z M40,25H10V5h30V25z"/>
</svg>
