<?xml version="1.0" encoding="utf-8"?>
<!-- Generator: Adobe Illustrator 21.0.0, SVG Export Plug-In . SVG Version: 6.00 Build 0)  -->
<svg version="1.1" id="Layer_1" focusable="false" xmlns="http://www.w3.org/2000/svg" xmlns:xlink="http://www.w3.org/1999/xlink"
	 x="0px" y="0px" viewBox="0 0 50 80" style="enable-background:new 0 0 50 80;" xml:space="preserve">
<style type="text/css">
	.st0{fill:#F63854;}
</style>
<path class="st0" d="M42.5,0h-35C3.4,0,0,3.4,0,7.5v65C0,76.6,3.4,80,7.5,80h35c4.1,0,7.5-3.4,7.5-7.5v-65C50,3.4,46.6,0,42.5,0z
	 M25,75c-2.8,0-5-2.2-5-5s2.2-5,5-5s5,2.2,5,5S27.8,75,25,75z M42.5,58.1c0,1-0.8,1.9-1.9,1.9H9.4c-1,0-1.9-0.8-1.9-1.9V9.4
	c0-1,0.8-1.9,1.9-1.9h31.3c1,0,1.9,0.8,1.9,1.9V58.1z"/>
</svg>
