<?xml version="1.0" encoding="utf-8"?>
<!-- Generator: Adobe Illustrator 21.0.0, SVG Export Plug-In . SVG Version: 6.00 Build 0)  -->
<svg version="1.1" id="Layer_1" focusable="false" xmlns="http://www.w3.org/2000/svg" xmlns:xlink="http://www.w3.org/1999/xlink"
	 x="0px" y="0px" viewBox="0 0 50 33.3" style="enable-background:new 0 0 50 33.3;" xml:space="preserve">
<style type="text/css">
	.st0{fill:#F63854;}
</style>
<path class="st0" d="M47.9,0H9.7C7.9,0,6.4,1.2,5.8,2.8H2.1C0.9,2.8,0,3.7,0,4.9v23.6c0,2.7,2.2,4.9,4.9,4.9h43.1
	c1.2,0,2.1-0.9,2.1-2.1V2.1C50,0.9,49.1,0,47.9,0z M4.2,28.5V6.9h1.4v21.5c0,0.4-0.3,0.7-0.7,0.7S4.2,28.9,4.2,28.5z M45.8,29.2H9.7
	c0-0.2,0.1-0.5,0.1-0.7V4.2h36.1V29.2z M14.9,18.8h11.8c0.6,0,1-0.5,1-1V9.4c0-0.6-0.5-1-1-1H14.9c-0.6,0-1,0.5-1,1v8.3
	C13.9,18.3,14.4,18.8,14.9,18.8z M17.4,11.8h6.9v3.5h-6.9V11.8z M13.9,24v-2.1c0-0.6,0.5-1,1-1h11.8c0.6,0,1,0.5,1,1V24
	c0,0.6-0.5,1-1,1H14.9C14.4,25,13.9,24.5,13.9,24z M30.6,24v-2.1c0-0.6,0.5-1,1-1h9c0.6,0,1,0.5,1,1V24c0,0.6-0.5,1-1,1h-9
	C31,25,30.6,24.5,30.6,24z M30.6,11.5V9.4c0-0.6,0.5-1,1-1h9c0.6,0,1,0.5,1,1v2.1c0,0.6-0.5,1-1,1h-9C31,12.5,30.6,12,30.6,11.5z
	 M30.6,17.7v-2.1c0-0.6,0.5-1,1-1h9c0.6,0,1,0.5,1,1v2.1c0,0.6-0.5,1-1,1h-9C31,18.8,30.6,18.3,30.6,17.7z"/>
</svg>
