<?xml version="1.0" encoding="utf-8"?>
<!-- Generator: Adobe Illustrator 21.0.0, SVG Export Plug-In . SVG Version: 6.00 Build 0)  -->
<svg version="1.1" id="Layer_1" focusable="false" xmlns="http://www.w3.org/2000/svg" xmlns:xlink="http://www.w3.org/1999/xlink"
	 x="0px" y="0px" viewBox="0 0 50 43.8" style="enable-background:new 0 0 50 43.8;" xml:space="preserve">
<style type="text/css">
	.st0{fill:#F63854;}
</style>
<path class="st0" d="M25,18.8c-7.8,0-18.7,12-18.7,19.6c0,3.4,2.6,5.4,7,5.4c4.8,0,7.9-2.4,11.7-2.4c3.9,0,7,2.4,11.7,2.4
	c4.4,0,7-2,7-5.4C43.8,30.7,32.8,18.8,25,18.8z M10.6,17.5c-1-3.4-4.1-5.6-7-4.9c-2.8,0.7-4.3,4-3.3,7.4s4.1,5.6,7,4.9
	C10.2,24.2,11.6,20.9,10.6,17.5L10.6,17.5z M18.9,15.5c3-0.8,4.5-4.9,3.4-9.1c-1.2-4.2-4.5-7-7.6-6.2S10.2,5,11.3,9.3
	S15.9,16.3,18.9,15.5z M46.4,12.6c-2.8-0.7-6,1.5-7,4.9c-1,3.4,0.5,6.7,3.3,7.4c2.8,0.7,6-1.5,7-4.9C50.7,16.6,49.2,13.3,46.4,12.6
	L46.4,12.6z M31.1,15.5c3,0.8,6.4-2,7.6-6.2c1.2-4.2-0.4-8.3-3.4-9.1s-6.4,2-7.6,6.2C26.6,10.6,28.1,14.7,31.1,15.5z"/>
</svg>
