<?xml version="1.0" encoding="utf-8"?>
<!-- Generator: Adobe Illustrator 21.0.0, SVG Export Plug-In . SVG Version: 6.00 Build 0)  -->
<svg version="1.1" id="Layer_1" focusable="false" xmlns="http://www.w3.org/2000/svg" xmlns:xlink="http://www.w3.org/1999/xlink"
	 x="0px" y="0px" viewBox="0 0 50 57.1" style="enable-background:new 0 0 50 57.1;" xml:space="preserve">
<style type="text/css">
	.st0{fill:#F63854;}
</style>
<path class="st0" d="M35,33.9c-3.2,0-4.7,1.8-10,1.8s-6.8-1.8-10-1.8c-8.3,0-15,6.7-15,15v2.9c0,3,2.4,5.4,5.4,5.4h39.3
	c3,0,5.4-2.4,5.4-5.4v-2.9C50,40.6,43.3,33.9,35,33.9z M44.6,51.8H5.4v-2.9c0-5.3,4.3-9.6,9.6-9.6c1.6,0,4.3,1.8,10,1.8
	c5.8,0,8.4-1.8,10-1.8c5.3,0,9.6,4.3,9.6,9.6V51.8z M25,32.1c8.9,0,16.1-7.2,16.1-16.1S33.9,0,25,0S8.9,7.2,8.9,16.1
	S16.1,32.1,25,32.1z M25,5.4c5.9,0,10.7,4.8,10.7,10.7S30.9,26.8,25,26.8S14.3,22,14.3,16.1S19.1,5.4,25,5.4z"/>
</svg>
